{"title":"Bob's Burgers 305 720p XBOX360/PS3 READY","uid":7937409,"size":379530362,"categoryP":"video","categoryS":"hd___tv_shows","magnet":"?xt=urn:btih:856e2df2a5ca52c11fde83f18e6ba4a56dc45d10&amp;dn=Bob%27s+Burgers+305+720p+XBOX360%2FPS3+READY&amp;tr=udp%3A%2F%2Ftracker.openbittorrent.com%3A80&amp;tr=udp%3A%2F%2Fopen.demonii.com%3A1337&amp;tr=udp%3A%2F%2Ftracker.coppersurfer.tk%3A6969&amp;tr=udp%3A%2F%2Fexodus.desync.com%3A6969","seeders":1,"leechers":0,"uploader":"Danimal1q2w3","files":1,"time":1355896943,"description":"Bob's Burgers Season 3 Episode 5\n\nSEED MOTHER FUCKERS\n\n\nVideo\nID                                       : 0\nFormat                                   : MPEG-4 Visual\nFormat profile                           : Simple@L3\nFormat settings, BVOP                    : No\nFormat settings, QPel                    : No\nFormat settings, GMC                     : No warppoints\nFormat settings, Matrix                  : Default (H.263)\nCodec ID                                 : XVID\nCodec ID/Hint                            : XviD\nDuration                                 : 21mn 32s\nSource duration                          : 21mn 32s\nBit rate                                 : 2 025 Kbps\nWidth                                    : 1 280 pixels\nHeight                                   : 720 pixels\nDisplay aspect ratio                     : 16:9\nFrame rate                               : 24.000 fps\nColor space                              : YUV\nChroma subsampling                       : 4:2:0\nBit depth                                : 8 bits\nScan type                                : Progressive\nCompression mode                         : Lossy\nBits/(Pixel*Frame)                       : 0.092\nStream size                              : 312 MiB (86%)\nWriting library                          : XviD 63\n\nAudio\nID                                       : 1\nFormat                                   : MPEG Audio\nFormat version                           : Version 1\nFormat profile                           : Layer 3\nMode                                     : Joint stereo\nCodec ID                                 : 55\nCodec ID/Hint                            : MP3\nDuration                                 : 21mn 32s\nBit rate mode                            : Variable\nBit rate                                 : 312 Kbps\nChannel(s)                               : 2 channels\nSampling rate                            : 48.0 KHz\nCompression mode                         : Lossy\nStream size                              : 48.1 MiB (13%)\nAlignment                                : Aligned on interleaves\nInterleave, duration                     : 24 ms (0.58 video frame)\nInterleave, preload duration             : 427 ms\n\n","torrent":{"xt":"urn:btih:856e2df2a5ca52c11fde83f18e6ba4a56dc45d10","amp;dn":"Bob%27s+Burgers+305+720p+XBOX360%2FPS3+READY","amp;tr":["udp%3A%2F%2Ftracker.openbittorrent.com%3A80","udp%3A%2F%2Fopen.demonii.com%3A1337","udp%3A%2F%2Ftracker.coppersurfer.tk%3A6969","udp%3A%2F%2Fexodus.desync.com%3A6969"],"infoHash":"856e2df2a5ca52c11fde83f18e6ba4a56dc45d10","infoHashBuffer":{"type":"Buffer","data":[133,110,45,242,165,202,82,193,31,222,131,241,142,107,164,165,109,196,93,16]},"announce":[],"urlList":[]}}